<?xml version="1.0" standalone="no"?>
<!DOCTYPE svg PUBLIC "-//W3C//DTD SVG 20010904//EN"
 "http://www.w3.org/TR/2001/REC-SVG-20010904/DTD/svg10.dtd">
<svg version="1.0" xmlns="http://www.w3.org/2000/svg"
 width="512.000000pt" height="512.000000pt" viewBox="0 0 512.000000 512.000000"
 preserveAspectRatio="xMidYMid meet">
<metadata>
Created by potrace 1.14, written by Peter Selinger 2001-2017
</metadata>
<g transform="translate(0.000000,512.000000) scale(0.100000,-0.100000)"
fill="#000000" stroke="none">
<path d="M2430 4129 c-138 -21 -228 -119 -238 -259 -4 -58 -1 -76 21 -124 125
-273 530 -190 530 109 0 169 -149 299 -313 274z m81 -212 c30 -23 40 -53 28
-86 -13 -36 -35 -51 -78 -51 -34 0 -71 39 -71 75 0 37 37 75 73 75 18 0 39 -6
48 -13z"/>
<path d="M1518 3955 c-2 -2 -22 -5 -46 -8 -48 -5 -153 -55 -194 -91 -53 -47
-98 -118 -119 -188 -77 -253 93 -501 359 -524 174 -15 348 100 410 271 25 68
26 190 2 259 -44 128 -142 224 -270 264 -32 11 -136 22 -142 17z m126 -228
c113 -62 139 -216 53 -313 -37 -43 -71 -61 -128 -68 -154 -19 -273 138 -214
282 48 113 180 159 289 99z"/>
<path d="M2738 3425 c-2 -1 -23 -5 -48 -8 -107 -14 -258 -69 -355 -129 -72
-45 -165 -143 -213 -223 -41 -70 -96 -218 -108 -290 -3 -20 -8 -47 -10 -59 -3
-11 -7 -69 -10 -127 -10 -169 17 -199 171 -194 146 6 204 15 319 51 187 59
306 147 401 294 89 138 129 280 142 492 10 179 -9 200 -177 197 -60 -1 -110
-3 -112 -4z m87 -247 c-8 -71 -42 -203 -65 -255 -79 -178 -251 -291 -485 -319
-27 -3 -55 -7 -62 -9 -12 -4 -26 22 -19 33 2 4 7 30 10 59 33 294 203 475 497
528 40 7 87 14 102 14 l28 1 -6 -52z"/>
<path d="M633 3150 c-99 -11 -135 -33 -150 -94 -3 -11 -7 -76 -9 -143 -4 -177
33 -294 123 -387 88 -91 228 -136 411 -131 190 5 213 28 220 220 4 135 -10
220 -54 310 -82 167 -285 251 -541 225z m235 -216 c107 -31 157 -114 161 -266
l2 -77 -68 3 c-205 9 -286 88 -292 288 -2 57 1 67 16 70 34 7 128 -2 181 -18z"/>
<path d="M1561 2851 c-48 -13 -66 -53 -68 -154 -1 -51 2 -106 8 -124 25 -79
139 -87 180 -11 6 12 12 66 12 123 0 79 -4 107 -17 127 -24 37 -68 52 -115 39z"/>
<path d="M32 2194 l-34 -34 5 -153 c3 -83 8 -163 11 -177 3 -14 8 -38 12 -55
30 -154 129 -342 246 -466 161 -171 340 -265 598 -315 46 -9 1807 -11 1885 -3
101 12 136 19 229 50 248 82 456 262 577 497 38 74 89 220 89 255 0 15 15 17
140 17 l140 0 0 -49 c0 -79 10 -110 43 -133 30 -21 37 -22 441 -23 226 0 431
3 455 7 150 27 252 156 247 313 -3 86 -34 152 -98 211 -86 79 -85 79 -585 79
l-443 0 -27 -28 c-24 -24 -28 -36 -31 -102 l-4 -75 -129 0 -129 0 1 74 c1 85
-15 119 -64 135 -21 7 -622 10 -1786 10 l-1755 -1 -34 -34z m3438 -225 c0 -33
-7 -94 -16 -136 -69 -335 -342 -589 -687 -640 -56 -8 -1798 -8 -1862 0 -125
16 -270 75 -367 148 -202 151 -316 358 -334 605 l-6 82 1636 0 1636 0 0 -59z
m1387 36 c33 -14 63 -59 63 -95 0 -12 -6 -33 -14 -48 -28 -54 -38 -56 -409
-57 -188 0 -347 1 -354 3 -9 3 -12 34 -11 107 l0 102 347 0 c260 0 354 -3 378
-12z"/>
</g>
</svg>
